# xmcd CD database file
#
# Track frame offsets:
#	150
#	16611
#	32093
#	50788
#	72111
#	92860
#	115037
#	135438
#	159378
#	177138
#	189689
#	206561
#	228688
#	253479
#	274707
#	301967
#	335391
#
# Disc length: 4792 seconds
#
# Revision: 8
# Processed by: cddbd v1.5.2PL0 Copyright (c) Steve Scherf et al.
# Submitted via: CDex 1.70beta2
#
DISCID=ed12b611
DTITLE=Various Artist - Smooth Jazz Cafe 6.1
DYEAR=2004
DGENRE=Jazz
TTITLE0=Jamie Cullum - Twentysomething
TTITLE1=Stacey Kent - Too Darn Hot
TTITLE2=Till Bronner - Bein' Green
TTITLE3=Kayah - Twoja dłon
TTITLE4=Matt Bianco - Ordinary Day
TTITLE5=Eliane Elias - Baubles, Bangles And Beads
TTITLE6=Peter White and Christopher Cross - She's In Love
TTITLE7=Brenda Russel and Joe Esposito - Piano In The Dark
TTITLE8=Chris Botti - A Thousand Kisses Deep
TTITLE9=Dinah Washington - Mad About The Boy
TTITLE10=Al Jarreau - Cold Duck
TTITLE11=Cassandra Wilson - Drunk As Cooter Brown
TTITLE12=Mike Stern and Richard Bona - If Only
TTITLE13=Breaking News - Coffee Cup
TTITLE14=Bugge Wesseltoft - Skog
TTITLE15=Beady Belle - One And Only
TTITLE16=Button Hackers - Night
EXTD=YEAR: 2004
EXTT0=
EXTT1=
EXTT2=
EXTT3=
EXTT4=
EXTT5=
EXTT6=
EXTT7=
EXTT8=
EXTT9=
EXTT10=
EXTT11=
EXTT12=
EXTT13=
EXTT14=
EXTT15=
EXTT16=
PLAYORDER=
